<svg id="Layer_1" data-name="Layer 1" xmlns="http://www.w3.org/2000/svg" xmlns:xlink="http://www.w3.org/1999/xlink" viewBox="0 0 2119.01 787.62"><defs><style>.cls-1{fill:url(#radial-gradient);}.cls-14,.cls-2{fill:none;}.cls-3,.cls-5{fill:#32414b;}.cls-4{mask:url(#mask);}.cls-5{font-size:16.67px;font-family:OpenSans-Light, Open Sans;font-weight:300;letter-spacing:-0.05em;}.cls-6{fill:#fff;opacity:0.71;}.cls-7{fill:#a51e37;}.cls-8{clip-path:url(#clip-path);}.cls-9{fill:#686b74;}.cls-10{fill:#8f8f95;}.cls-11{opacity:0.5;}.cls-12{clip-path:url(#clip-path-4);}.cls-13{clip-path:url(#clip-path-5);}.cls-14{stroke:#0069aa;stroke-miterlimit:10;stroke-width:22.12px;}</style><radialGradient id="radial-gradient" cx="520" cy="304" r="335" gradientUnits="userSpaceOnUse"><stop offset="0"/><stop offset="0" stop-color="#252523"/><stop offset="0.3" stop-color="#282826" stop-opacity="0.99"/><stop offset="0.57" stop-color="#666664" stop-opacity="0.7"/><stop offset="1" stop-color="#fff" stop-opacity="0"/></radialGradient><mask id="mask" x="0" y="0" width="1253.67" height="787.62" maskUnits="userSpaceOnUse"><g transform="translate(67 103.62)"><circle class="cls-1" cx="520" cy="304" r="335"/></g></mask><clipPath id="clip-path" transform="translate(67 103.62)"><rect class="cls-2" x="110.54" y="232.27" width="622.53" height="347.07" transform="translate(-163.4 417.12) rotate(-45)"/></clipPath><clipPath id="clip-path-4" transform="translate(67 103.62)"><rect class="cls-2" x="177.12" y="503.38" width="307.77" height="35.42" transform="translate(-271.52 386.68) rotate(-45)"/></clipPath><clipPath id="clip-path-5" transform="translate(67 103.62)"><rect class="cls-2" x="398.47" y="396.49" width="27.98" height="36.2" transform="translate(-172.36 413.09) rotate(-45)"/></clipPath></defs><title>Banner</title><path class="cls-3" d="M216.19,130.27q-47,0-72.78,35.31T117.63,264q0,131.33,98.56,131.32,41.34,0,100.17-20.68v69.83q-48.35,20.14-108,20.14-85.68,0-131.06-52T32,263.47q0-61.23,22.29-107.29T118.3,85.55Q160,61,216.19,61q57.19,0,114.94,27.66l-26.86,67.68A444.49,444.49,0,0,0,260,138.06,132.23,132.23,0,0,0,216.19,130.27Z" transform="translate(67 103.62)"/><path class="cls-3" d="M855.88,464.62q-140.18,0-140.18-153.88,0-76.55,38.13-117t109.3-40.42q52.11,0,93.46,20.41l-24.17,63.38q-19.33-7.78-36-12.75a116,116,0,0,0-33.3-5q-63.92,0-63.91,90.77,0,88.1,63.91,88.09A145.67,145.67,0,0,0,906.91,392a157.81,157.81,0,0,0,40.28-19.73v70.09A132.07,132.07,0,0,1,907,459.79Q886.76,464.62,855.88,464.62Z" transform="translate(67 103.62)"/><path class="cls-3" d="M1095.43,296l35.72-45.66L1215.21,159h92.38L1188.35,289.25l126.49,170h-94.53l-86.47-121.66-35.18,28.2v93.46h-81.91V41.38h81.91V227.75l-4.3,68.22Z" transform="translate(67 103.62)"/><path class="cls-3" d="M1522.7,464.62q-52.9,0-83-38.4h-4.3q4.3,37.59,4.3,43.5V591.38h-81.91V159h66.6L1436,197.94h3.76q28.74-44.56,85.13-44.58,53.18,0,83.25,41.09t30.08,114.14q0,48.07-14.1,83.52t-40.15,54Q1557.89,464.62,1522.7,464.62Zm-24.17-245.73q-30.35,0-44.31,18.67t-14.5,61.63v8.86q0,48.34,14.37,69.29t45.52,21q55,0,55.05-90.78,0-44.31-13.56-66.46T1498.53,218.89Z" transform="translate(67 103.62)"/><path class="cls-3" d="M1702.37,81.39q0-40,44.58-40t44.58,40q0,19.08-11.15,29.68T1747,121.67Q1702.37,121.67,1702.37,81.39Zm85.4,377.86h-81.91V159h81.91Z" transform="translate(67 103.62)"/><path class="cls-3" d="M2000.44,399.11q21.49,0,51.57-9.4v61q-30.62,13.69-75.2,13.7-49.14,0-71.57-24.85T1882.82,365V220.25h-39.21v-35.5l39.21-27,27.1-62.93h27.69L1964.73,158l38.94,27-.09,35.25h-38.85V365q0,17.46,9.8,25.78T2000.44,399.11Z" transform="translate(67 103.62)"/><g class="cls-4"><text class="cls-5" transform="translate(0 14.28) scale(1.17 1)">1 0 1 0 0 1 0 0 1 1 1 0 1 0 1 1 0 1 1 1 1 1 1 0 0 0 1 1 1 1 1 1 1 0 0 1 1 1 0 0 1 1 0 1 1 0 0 0 1 1 0 0 0 0 0 0 1 0 0 1 0 1 0 1 0 1 0 0 1 0 1 0 0 1 1 1 1 0 0 0 0 1 0 0 1 1 0 0 <tspan x="0" y="20">0 0 0 1 0 1 0 1 0 1 0 1 0 0 1 0 0 1 1 0 0 0 1 0 1 0 1 1 0 1 1 1 0 1 0 1 0 1 1 0 1 0 1 0 0 1 0 0 0 0 0 1 0 0 0 0 0 0 1 1 1 1 1 1 0 1 1 1 0 1 1 1 0 0 1 1 1 1 0 1 1 1 0 0 0 1 0</tspan><tspan x="0" y="40" xml:space="preserve"> 0 1 1 0 0 1 1 1 1 1 1 0 1 0 1 1 1 0 1 1 1 1 0 0 1 1 0 0 1 1 1 0 0 0 0 0 1 0 1 1 1 0 1 0 0 0 0 0 1 1 1 0 1 1 0 0 1 1 0 1 1 1 0 1 1 1 0 0 0 1 0 1 1 0 0 1 0 0 0 1 1 0 0 0 1 1 0 </tspan><tspan x="0" y="60">1 0 1 1 1 1 1 1 0 0 1 1 1 0 1 1 0 1 1 0 1 0 0 1 1 1 1 1 1 1 0 1 0 1 0 1 1 1 1 1 0 1 0 0 0 0 0 0 0 1 0 1 0 1 0 0 0 0 1 1 0 1 0 0 1 1 0 0 1 0 1 1 1 1 1 1 0 1 0 1 0 0 1 0 0 0 0 0</tspan><tspan x="0" y="80" xml:space="preserve"> 1 0 0 0 0 0 0 1 0 1 0 1 1 0 0 1 1 1 0 0 1 0 1 0 1 1 0 1 1 0 1 1 0 1 0 1 1 0 1 0 1 1 0 0 0 0 1 0 1 1 1 1 0 1 0 1 1 1 0 0 1 1 0 1 1 1 1 0 0 1 0 0 1 1 1 0 1 0 1 0 1 1 1 1 1 1 1 </tspan><tspan x="0" y="100">1 1 0 0 0 1 0 1 1 1 1 0 0 0 0 0 0 0 1 1 1 1 0 1 1 1 1 0 1 1 1 0 1 1 1 0 1 1 1 1 1 1 1 1 1 0 0 0 1 0 1 0 1 0 0 1 1 1 0 0 1 0 0 1 1 0 1 0 0 1 0 0 0 1 1 1 1 0 1 1 0 0 0 0 1 0 0 1</tspan><tspan x="0" y="120" xml:space="preserve"> 1 1 1 0 0 0 0 0 1 1 0 1 0 1 0 1 0 1 0 0 1 0 1 1 1 0 1 0 1 1 1 0 0 0 1 1 1 0 0 0 0 0 1 0 0 0 1 0 1 1 1 0 1 1 1 0 0 0 1 0 0 0 0 1 0 1 1 0 0 1 0 0 1 1 1 0 0 0 0 0 1 0 0 0 0 0 1 </tspan><tspan x="0" y="140">1 0 1 0 0 0 1 0 1 1 1 1 1 1 1 1 0 1 1 0 0 1 1 0 1 0 1 1 0 1 0 1 1 1 0 1 1 1 0 1 1 0 1 1 0 1 0 0 0 0 0 0 0 1 1 1 0 1 1 1 0 1 1 1 1 1 1 1 1 1 1 1 0 1 0 1 1 0 0 1 1 1 0 1 1 1 1 1</tspan><tspan x="0" y="160" xml:space="preserve"> 1 0 1 0 1 0 0 0 1 1 1 0 0 0 1 0 1 0 1 1 1 0 1 1 1 0 0 1 0 0 1 0 0 0 0 1 0 0 1 0 0 1 0 1 1 0 0 0 1 1 1 0 0 0 0 0 0 1 0 0 1 0 0 1 1 0 1 1 0 1 1 1 0 0 0 0 1 0 1 0 1 0 1 0 1 0 0 </tspan><tspan x="0" y="180">0 1 0 0 0 0 1 0 0 1 0 0 1 0 0 1 1 0 0 0 1 0 0 1 1 1 1 1 0 1 0 0 1 0 1 1 0 0 1 0 0 0 1 0 1 1 1 0 1 0 1 1 0 1 1 0 1 1 1 0 1 1 1 0 1 0 0 0 0 0 0 1 1 0 1 1 0 0 0 0 0 1 0 1 0 1 0 0</tspan><tspan x="0" y="200" xml:space="preserve"> 1 1 0 1 1 1 0 0 1 1 1 1 0 0 0 0 0 1 0 0 1 1 1 0 0 1 1 1 1 0 0 1 0 0 1 1 1 0 1 1 1 1 0 1 1 0 0 1 0 1 0 0 1 0 0 1 1 0 0 1 0 0 0 1 0 1 1 0 0 0 1 0 1 1 1 1 0 1 0 1 0 1 0 0 1 0 0 </tspan><tspan x="0" y="220">0 1 0 0 1 1 0 1 0 1 0 0 0 0 0 1 1 1 1 1 1 0 0 1 1 1 0 0 0 1 0 0 1 0 0 1 0 1 0 1 1 0 0 0 1 1 1 0 0 1 1 0 1 1 1 0 0 1 1 1 1 0 0 0 1 1 1 1 0 0 1 0 1 1 1 0 0 1 0 1 0 1 0 0 0 1 1 1</tspan><tspan x="0" y="240" xml:space="preserve"> 0 0 1 1 0 0 1 1 1 0 1 1 1 1 0 0 0 0 0 0 0 1 1 1 0 1 1 1 0 0 0 1 0 1 1 1 0 0 1 0 0 1 0 1 0 0 0 1 1 1 1 1 1 1 1 0 0 1 0 0 0 1 1 1 0 1 0 0 1 0 1 1 0 1 1 1 0 0 0 0 1 1 1 1 0 1 0 </tspan><tspan x="0" y="260">0 0 1 0 1 0 1 0 0 0 1 0 0 0 0 1 1 1 0 1 1 1 1 1 1 1 0 1 0 1 0 1 1 1 1 1 0 0 1 0 0 0 1 1 1 1 0 0 1 1 1 1 0 1 1 0 1 1 0 0 0 1 1 0 0 0 0 0 1 0 0 1 1 1 0 1 1 1 1 0 0 1 0 0 1 1 0 0</tspan><tspan x="0" y="280" xml:space="preserve"> 0 0 0 1 1 0 0 1 1 0 0 0 0 1 1 1 0 0 0 1 0 0 1 1 1 1 1 1 1 0 1 1 1 1 1 0 0 0 0 0 1 0 1 1 1 0 1 1 0 0 1 1 1 0 0 1 0 0 0 0 0 0 0 0 0 0 0 1 1 1 1 0 1 0 0 1 0 1 0 0 1 0 1 1 1 1 0 </tspan><tspan x="0" y="300">1 1 1 0 1 0 0 1 1 1 1 1 0 1 0 1 1 1 1 1 0 0 1 1 1 0 1 1 1 0 0 0 0 1 1 1 0 0 1 1 0 0 1 1 1 1 0 0 1 1 0 0 0 1 1 0 0 0 0 1 1 0 0 0 1 0 1 1 0 1 0 1 1 1 0 0 0 0 0 0 1 1 1 1 0 0 0 1</tspan><tspan x="0" y="320" xml:space="preserve"> 0 0 1 0 1 0 1 1 1 1 0 0 1 0 1 0 0 1 1 0 0 0 0 0 1 1 1 0 0 0 0 1 0 0 0 0 1 1 1 1 1 0 0 0 1 0 1 0 1 1 0 0 1 0 1 0 1 0 0 0 1 0 1 1 1 0 1 1 0 1 1 1 1 0 1 1 1 0 0 0 0 1 1 1 0 1 1 </tspan><tspan x="0" y="340">0 0 0 1 1 0 0 0 0 0 0 1 0 1 1 1 0 1 0 1 0 0 0 1 0 0 1 0 1 0 1 0 1 0 0 0 0 0 0 1 0 0 1 1 1 0 1 1 1 1 1 1 0 0 0 0 0 0 0 1 1 0 1 1 0 1 1 0 1 0 1 1 0 0 0 0 0 1 0 0 1 0 1 0 1 1 0 1</tspan><tspan x="0" y="360" xml:space="preserve"> 1 1 0 1 0 1 0 0 1 0 0 0 1 1 0 0 1 0 0 1 0 1 0 0 0 0 0 0 0 0 0 0 1 0 1 1 0 1 0 0 1 1 1 0 0 1 1 0 0 0 1 0 0 1 0 0 0 1 1 0 1 1 0 0 0 0 0 1 0 0 0 0 0 0 0 1 0 0 0 0 1 0 1 1 0 1 1 </tspan><tspan x="0" y="380">1 0 0 0 0 1 1 0 0 1 0 0 1 0 1 0 0 0 1 0 0 0 0 0 1 1 1 1 0 1 0 0 0 0 0 1 0 1 1 1 0 1 0 0 0 1 0 0 0 1 1 0 1 1 0 1 1 1 0 0 1 0 1 0 0 0 0 1 1 1 1 0 0 0 0 1 1 1 1 1 0 0 0 0 0 1 0 1</tspan><tspan x="0" y="400" xml:space="preserve"> 0 1 1 1 0 0 1 1 0 0 0 1 1 1 1 0 0 1 1 1 1 1 0 0 1 1 0 0 0 0 0 1 1 1 1 1 1 0 1 0 0 0 1 0 1 0 0 0 1 1 1 1 0 0 1 0 0 0 0 0 0 0 0 1 1 1 0 0 0 1 0 1 0 1 0 1 0 1 1 0 1 1 0 0 1 1 1 </tspan><tspan x="0" y="420">1 1 0 0 1 1 0 1 1 0 1 1 1 0 0 0 1 0 1 1 0 0 0 0 1 0 1 1 1 0 1 0 0 1 0 0 1 0 1 0 0 0 1 1 0 1 0 0 0 1 1 0 0 0 0 1 1 1 1 0 0 1 1 1 0 1 1 1 1 1 0 1 0 0 0 1 1 0 1 1 1 1 1 1 0 0 0 1</tspan><tspan x="0" y="440" xml:space="preserve"> 0 0 1 1 1 0 1 0 1 1 0 0 1 1 0 1 1 0 0 1 0 0 0 0 1 0 1 1 0 0 0 0 1 1 0 0 1 1 0 1 0 1 1 1 1 0 1 0 1 0 1 1 0 0 1 0 1 0 1 0 0 1 1 1 0 1 0 0 1 0 0 0 1 1 0 0 1 0 0 1 0 1 1 0 0 0 0 </tspan><tspan x="0" y="460">0 1 0 1 0 0 1 1 0 1 0 0 1 1 0 0 1 1 1 1 1 0 0 1 1 0 1 1 1 1 1 1 0 1 1 1 1 0 0 1 1 1 1 1 0 0 0 1 1 1 1 0 1 1 0 0 1 0 1 1 1 1 0 1 1 0 1 1 1 0 1 1 0 0 1 0 0 1 1 0 1 0 1 1 1 0 0 0</tspan><tspan x="0" y="480" xml:space="preserve"> 1 0 1 0 0 1 0 1 0 0 0 1 1 1 0 0 0 1 1 1 1 1 0 1 1 0 1 1 1 1 0 1 0 1 1 1 1 1 1 0 1 0 0 0 1 0 1 1 0 0 0 1 1 0 0 1 0 0 0 0 1 0 0 1 0 0 0 1 1 1 0 0 0 0 0 1 1 0 1 1 1 1 1 0 1 0 0 </tspan><tspan x="0" y="500">0 1 0 1 0 1 1 1 0 0 0 1 0 1 1 1 0 1 0 0 1 0 0 0 1 0 0 1 1 1 0 1 1 0 0 0 0 0 1 0 1 1 0 1 1 1 1 0 1 0 0 0 1 0 1 0 1 0 0 0 1 1 1 0 1 0 0 0 0 1 1 0 0 0 1 1 1 1 0 1 1 1 0 1 1 1 0 1 </tspan><tspan x="0" y="520">0 0 1 1 1 1 1 0 1 0 0 0 0 1 1 0 1 1 0 0 0 0 0 0 1 1 0 1 1 0 0 1 1 0 0 1 1 0 1 1 1 0 0 1 0 0 1 0 0 1 0 0 1 1 0 1 1 0 0 1 0 1 0 1 0 0 0 1 1 0 1 0 1 0 0 1 0 0 0 0 0 1 1 0 1 1 0 1 </tspan><tspan x="0" y="540">1 0 0 1 0 0 0 1 0 0 0 1 0 0 0 0 0 1 0 1 1 1 1 0 1 1 1 1 0 1 1 1 0 1 1 1 0 0 0 0 0 0 0 0 1 0 1 0 0 1 1 0 0 0 0 0 0 0 1 0 1 1 0 1 1 0 1 0 1 1 1 0 0 0 0 0 0 0 1 1 1 1 1 0 1 1 0 </tspan><tspan x="0" y="560">0 1 1 0 1 0 0 0 1 0 0 1 1 0 1 0 1 0 0 0 0 1 1 1 1 1 0 0 1 1 0 0 1 1 0 1 1 1 0 0 0 0 1 1 1 0 1 0 0 0 1 0 1 0 0 1 1 1 0 0 0 0 1 1 0 0 1 0 1 0 0 0 1 1 0 1 1 0 1 1 0 1 0 1 0 1 0 0 </tspan><tspan x="0" y="580">0 1 1 1 1 0 0 1 0 0 0 1 1 0 1 0 1 0 0 0 0 1 1 1 1 0 1 1 1 1 0 0 0 1 0 0 1 0 1 0 1 0 1 0 1 1 0 1 0 1 0 0 0 1 0 0 0 1 1 0 1 0 1 0 1 1 0 0 1 0 0 0 1 1 1 0 1 1 1 1 1 1 0 0 0 1 0 </tspan><tspan x="0" y="600">1 0 0 0 1 0 1 0 1 0 1 1 0 1 1 0 0 0 0 1 0 0 1 0 0 1 1 1 0 0 0 0 0 0 1 1 1 0 0 1 0 0 0 1 0 0 0 1 0 1 1 0 1 1 0 0 1 0 0 1 1 0 1 1 1 1 1 0 0 0 0 1 0 0 1 1 1 1 1 0 1 0 1 0 0 0 0 0 </tspan><tspan x="0" y="620">1 0 0 1 0 0 1 0 0 0 1 1 0 1 0 0 0 0 0 1 0 1 1 1 0 1 0 0 0 1 0 0 0 1 0 0 1 1 1 1 1 1 0 1 1 1 0 1 1 1 0 0 0 1 0 0 0 0 1 0 1 1 0 0 1 1 1 0 0 1 0 0 0 0 0 1 1 0 1 0 0 0 0 1 0 1 1 </tspan><tspan x="0" y="640">0 1 0 0 0 0 1 1 0 0 1 1 0 1 1 0 1 1 1 0 1 1 1 1 1 0 1 1 1 0 0 1 0 1 1 1 0 1 1 0 0 1 1 1 1 1 1 0 1 0 0 1 1 1 0 0 1 1 0 0 1 0 0 1 1 1 0 0 0 1 0 0 0 1 0 0 0 0 0 1 0 0 0 1 1 0 1 0 </tspan><tspan x="0" y="660">0 0 1 0 0 1 1 1 0 0 1 0 0 1 0 0 0 1 0 0 1 1 0 1 0 0 0 0 1 0 0 0 0 0 1 0 1 0 1 1 0 0 0 0 1 1 1 1 1 0 0 0 0 1 1 1 1 1 1 1 1 1 1 0 1 0 1 1 1 1 1 1 1 0 0 0 0 1 1 1 0 0 1 0 0 0 1 </tspan><tspan x="0" y="680">0 0 1 1 0 1 1 0 0 1 1 1 1 0 0 1 1 1 1 1 1 0 0 1 1 1 0 1 1 1 1 0 0 0 0 1 0 1 1 1 1 1 0 1 0 0 1 0 0 0 1 0 1 1 1 0 0 1 1 0 1 0 0 1 1 0 1 0 1 1 1 0 1 1 1 0 1 1 1 1 0 0 1 1 0 1 1 1 </tspan><tspan x="0" y="700">0 0 0 0 1 0 1 1 1 1 0 1 0 0 0 1 1 0 0 1 0 1 0 1 1 1 1 0 1 1 1 1 0 0 0 0 0 1 1 0 1 0 0 1 0 1 1 1 0 1 1 0 0 0 1 0 0 1 0 1 1 0 1 0 1 1 1 1 0 1 1 0 1 0 1 0 1 1 1 0 1 1 1 1 1 0 1 </tspan><tspan x="0" y="720">0 1 1 0 0 1 1 0 1 1 1 1 1 0 0 0 0 1 0 0 0 1 0 1 0 1 0 1 0 0 1 1 0 0 0 0 0 0 0 0 1 1 0 0 1 0 1 0 0 1 0 1 1 1 0 0 1 1 1 0 0 1 0 0 1 0 1 0 0 1 1 1 0 1 0 1 1 1 0 1 0 1 1 1 0 0 0 0 </tspan><tspan x="0" y="740">0 1 0 0 0 0 0 0 1 0 1 1 0 0 0 0 1 1 0 1 1 0 1 1 0 0 1 1 1 0 1 0 1 0 0 0 0 0 1 0 1 1 1 0 0 1 1 1 1 1 1 0 1 1 1 0 1 1 1 0 1 0 1 1 0 1 1 1 0 0 0 0 1 1 1 1 1 0 0 1 1 1 0 0 1 0 1</tspan><tspan x="0" y="760" xml:space="preserve"> 0 0 1 0 1 0 0 1 1 1 0 0 0 0 1 0 0 0 0 1 0 0 1 1 1 1 0 0 0 1 1 1 1 0 0 0 0 0 1 1 1 0 1 1 1 1 0 0 0 0 1 0 0 0 1 0 0 0 0 0 0 0 0 1 1 1 1 0 1 1 1 1 1 0 1 1 0 1 0 0 1 0 1 0 1 1 1 </tspan></text></g><circle class="cls-6" cx="589" cy="409.62" r="144"/><rect class="cls-7" x="481" y="353.16" width="18" height="110.45" rx="5"/><rect class="cls-7" x="454" y="337.62" width="18" height="126" rx="5"/><rect class="cls-7" x="508" y="377.71" width="18" height="85.91" rx="5"/><rect class="cls-7" x="535" y="402.25" width="18" height="61.36" rx="5"/><rect class="cls-7" x="562" y="377.71" width="18" height="85.91" rx="5"/><rect class="cls-7" x="589" y="353.16" width="18" height="110.45" rx="5"/><rect class="cls-7" x="616" y="377.71" width="18" height="85.91" rx="5"/><rect class="cls-7" x="643" y="402.25" width="18" height="61.36" rx="5"/><rect class="cls-7" x="670" y="426.8" width="18" height="36.82" rx="5"/><rect class="cls-7" x="697" y="449.98" width="18" height="13.64" rx="5"/><g class="cls-8"><g class="cls-8"><g class="cls-8"><path class="cls-9" d="M429.66,423,406,446.63a7,7,0,0,1-.58.52,7.83,7.83,0,0,1-10.48-.59L380.5,432.09a7.83,7.83,0,0,1-.6-10.48c.17-.2.34-.39.53-.58l23.63-23.63a7.83,7.83,0,0,1,11.06.07l14.47,14.47a7.83,7.83,0,0,1,.07,11.06" transform="translate(67 103.62)"/><path class="cls-10" d="M411.34,465.8,241.09,636.05c-3.52,3.52-9.49,3.26-13.33-.58L191.59,599.3c-3.84-3.84-4.1-9.82-.58-13.34L361.26,415.71c3.52-3.52,9.49-3.26,13.33.58l36.17,36.18c3.84,3.84,4.1,9.81.58,13.33" transform="translate(67 103.62)"/><g class="cls-11"><g class="cls-12"><path class="cls-3" d="M411.5,465.65,241.1,636c-3.52,3.53-9.5,3.27-13.34-.57l-18.09-18.09L427.3,399.76l7.23,7.23c3.08,3.07,2.71,8.43-.81,11.95l-27.45,27.44a7.57,7.57,0,0,1-.66.61l5.31,5.32c3.84,3.84,4.1,9.81.58,13.34" transform="translate(67 103.62)"/></g></g><g class="cls-11"><g class="cls-13"><path class="cls-3" d="M429.66,423l-13.49,13.49a145.38,145.38,0,0,1-25.6-25.6l13.49-13.49a7.83,7.83,0,0,1,11.06.07l14.47,14.47a7.83,7.83,0,0,1,.07,11.06" transform="translate(67 103.62)"/></g></g><ellipse class="cls-14" cx="521.27" cy="305.78" rx="139.89" ry="141.66" transform="translate(3.46 561.77) rotate(-45)"/></g></g></g></svg>